PathFileType	4	(X/Y/Z)	outputs\dynamic_markers.trc
DataRate	CameraRate	NumFrames	NumMarkers	Units	OrigDataRate	OrigDataStartFrame	OrigNumFrames
360.000000	360.000000	4	45	m	360.000000	80	643
Frame#	Time	C7			CLAV			LANK			LASI			LBHD			LELB			LFHD			LFIN			LFRM			LHEE			LKNE			LMANK			LMELB			LMKNE			LPSI			LSHO			LTHI			LTIB			LTOE			LUPA			LWRA			LWRB			RANK			RASI			RBAK			RBHD			RELB			RFHD			RFIN			RFRM			RHEE			RKNE			RMANK			RMELB			RMKNE			RPSI			RSHO			RTHI			RTIB			RTOE			RUPA			RWRA			RWRB			STRN			T10			
		X1	Y1	Z1	X2	Y2	Z2	X3	Y3	Z3	X4	Y4	Z4	X5	Y5	Z5	X6	Y6	Z6	X7	Y7	Z7	X8	Y8	Z8	X9	Y9	Z9	X10	Y10	Z10	X11	Y11	Z11	X12	Y12	Z12	X13	Y13	Z13	X14	Y14	Z14	X15	Y15	Z15	X16	Y16	Z16	X17	Y17	Z17	X18	Y18	Z18	X19	Y19	Z19	X20	Y20	Z20	X21	Y21	Z21	X22	Y22	Z22	X23	Y23	Z23	X24	Y24	Z24	X25	Y25	Z25	X26	Y26	Z26	X27	Y27	Z27	X28	Y28	Z28	X29	Y29	Z29	X30	Y30	Z30	X31	Y31	Z31	X32	Y32	Z32	X33	Y33	Z33	X34	Y34	Z34	X35	Y35	Z35	X36	Y36	Z36	X37	Y37	Z37	X38	Y38	Z38	X39	Y39	Z39	X40	Y40	Z40	X41	Y41	Z41	X42	Y42	Z42	X43	Y43	Z43	X44	Y44	Z44	X45	Y45	Z45	

81	0.2222222222222222	0.155466917569322	1.529564542065919	0.1856597159855433	0.1383049218870437	1.450293457849771	0.3255691901537819	0.6001065062114723	0.03295639952619041	0.2601186714919147	0.2856892414434678	1.022041513443215	0.3325241248350888	0.1339352234925156	1.669391185665424	0.200883685000314	0.4816687462091255	1.156986924711678	0.2566305433635171	0.2522505380099641	1.691895245533575	0.2616046256026902	0.2085582501149391	1.149941867415174	0.4846910660512747	0.3625417530655277	1.128552978529112	0.3626580779424516	0.5537307664513369	0.05170665451451418	0.1609586175761048	0.4385605119260562	0.5337609791643908	0.3401784684316661	0.4814321844243472	0.03941356060811244	0.260488623505304	0.4214788066747187	1.133382143486415	0.1922760479068031	0.330957669008807	0.4623325142362281	0.3150913896080166	0.2683778038079895	1.059954106233565	0.1247552089738279	0.3227444843053037	1.486525460127864	0.279505316673979	0.4189549409105012	0.7655335808818627	0.3303956573420547	0.5246783765798295	0.3729000470548075	0.2751687560680515	0.5127961130836564	0.03756853857812087	0.4238302362095272	0.4102991210181732	1.308068231110263	0.2978515349759722	0.250271897659228	1.172049506956226	0.3958207298067943	0.260293700722535	1.093721006081431	0.4001740403236531	0.009675405051273216	0.056093984870739	0.144748587560604	0.03100133810470635	1.011482768364389	0.2478326436094134	0.1275494877612992	1.337350836588576	0.08399275692321226	0.06103107247214832	1.677985641825037	0.3202585047065482	-0.1296537565613484	1.15359376867566	0.1131441722890043	0.1779026668618711	1.702765734448347	0.3995447250490836	0.02020992563450323	1.166463864818843	0.4063984747243507	-0.05734139702894162	1.14240048506987	0.2708889070046822	0.06901086401700941	0.07081797590388107	0.07517011773635024	0.02835305521183797	0.5037565583193052	0.3838575036039324	0.123195205710718	0.0649175835056527	0.1730909799072853	-0.05108619592119523	1.1294686637669	0.0747228603234039	0.1491966392286195	0.4925045788127546	0.3836869525818132	0.1575159748527945	1.050643355773092	0.09107363949950346	-0.03099243531933422	1.488026210486622	0.1975598306322027	0.007113608936894104	0.6991979906447668	0.2717811390523844	-0.003744882761033127	0.3134335378148582	0.2538781880924895	0.07415234004871314	0.07058987263704589	0.3128248382791571	-0.1025381617175005	1.341603122198364	0.14360557787127	0.04939328595466978	1.160254599425608	0.340778249506568	-0.00522456220764495	1.108336842908723	0.364849182765583	0.1292194102896917	1.271750722075288	0.3403015361560722	0.2111212790346077	1.140038843043367	0.1108578764881114	
82	0.225	0.1549187651073504	1.529287525397938	0.1852858018314336	0.1375969549160557	1.449959014346888	0.3251366951523253	0.5996971815087933	0.0335302519704986	0.2602251147545043	0.2849658542802892	1.02194968649185	0.332628139823455	0.1334049357880635	1.669102413097524	0.2005455884805562	0.4811044749697231	1.156625261757038	0.2571139583033109	0.2516667227986308	1.691533833630021	0.2613897755576675	0.207531394589075	1.14945328710673	0.4845855338888612	0.3617610611835252	1.128172171256719	0.362881586597852	0.5531990762142012	0.05225562717033089	0.1611209683700701	0.4376411345875004	0.5336935540954507	0.3422347994682212	0.4811542842372342	0.03946914275354012	0.2607662703468341	0.4210832060463706	1.132946362110444	0.1926414597765069	0.3301343955765876	0.4621858889216478	0.3169250876309241	0.2682636178802611	1.059576745159407	0.1247421795200763	0.3220643230166257	1.486162579206724	0.279358975841192	0.4178413521304659	0.7654389755907788	0.3317483563553879	0.5239952392969601	0.3730861912745757	0.2767504513763548	0.5127580622359662	0.0374000549951361	0.4240908800432669	0.4095556315870948	1.30769630111171	0.2980401279329843	0.2494082986173254	1.171633472536793	0.3958079256313118	0.2594273394785195	1.093281298606021	0.4001202927858271	0.009667649519071226	0.05609191149676056	0.1447714052081007	0.03051594717862477	1.011244962906745	0.2472513592586839	0.1271830884069183	1.337104962608007	0.0835324090456025	0.06038406734508572	1.677682594920575	0.3198478487214602	-0.1300490923108082	1.153265301612442	0.1125378320921704	0.1771868216196947	1.702383615565725	0.399256477393262	0.01934445294715986	1.165970238713676	0.4060505714874748	-0.05796443648902888	1.142039136049316	0.2703757943898448	0.06900706598617955	0.07085854327484772	0.0752074822750585	0.0278319284924165	0.5036882290719694	0.3839760635264956	0.1231648728305373	0.06493963740094215	0.1731316895868859	-0.05143176237153386	1.12916776186975	0.07422311073813347	0.1487002436490199	0.492458029572213	0.3839691030609828	0.1574658081908269	1.050227715220658	0.09078747718781012	-0.0315842839648472	1.487760701629259	0.1970374701960343	0.006763031467563712	0.6990123252804167	0.2716122022014999	-0.004017793018036898	0.3133615640182203	0.2539860029985092	0.07407618595199292	0.07043725703187526	0.3128615333972166	-0.1030519087861057	1.341280813808512	0.1430360030330009	0.04862456386318526	1.159968749050136	0.3404446679689278	-0.005922264755232325	1.107906616894024	0.3643598634637534	0.128401875769091	1.271413235145511	0.339799639027698	0.2109978701568529	1.139717660856109	0.1106594826148728	
83	0.2277777777777778	0.1543635769338486	1.529012758646355	0.1848997278579328	0.1368801304399007	1.449624770957066	0.3246899349789619	0.5992735093120725	0.03414491838894354	0.2603404299403104	0.2842291052186495	1.021856000019168	0.332723812009131	0.1328678858018423	1.668816710754473	0.200196407282647	0.4805297226110238	1.156258016830514	0.2576112389995633	0.2510746012439627	1.691174889619546	0.2611665116204766	0.206483550073239	1.148973389008278	0.4844750505436785	0.360963945113953	1.127792231792408	0.3631107879478551	0.5526464689402649	0.05286408017207066	0.1612930357446965	0.4366888863300001	0.5336379121686423	0.3443491482669996	0.4808645678703677	0.03955218894896009	0.2610562489079274	0.4206826869963607	1.132501400144997	0.1930178822491111	0.3292843052824221	0.4620480524895287	0.3188077527374124	0.2681608766988802	1.059196846630594	0.1247243862649192	0.3213767213491117	1.485797768960406	0.2792015814709304	0.4166893464575868	0.765348268326128	0.333125185782385	0.5232807473702186	0.3732986671561025	0.2783620463982642	0.5127164770365523	0.03723998742260437	0.4243597299947766	0.4088027474082099	1.307319741563258	0.2982275955814152	0.2485284662380036	1.171219962265022	0.3957921907127402	0.258542186468931	1.092845296815778	0.4000702910220241	0.009660067952136255	0.05608773664680664	0.1447943640289933	0.03002258385514309	1.01101066333496	0.246649174284247	0.1268165731649714	1.336860060090444	0.08305971836368072	0.05972751147015538	1.677381681093457	0.3194244806773553	-0.1304570004892443	1.152930126147135	0.1119253856272371	0.1764597136275446	1.702002363930817	0.3989582033558898	0.01846409221607343	1.16548272585643	0.4056945192078661	-0.05860131818803553	1.141678759215759	0.2698562960410332	0.06900349011517003	0.07089812646546369	0.07524508507899651	0.02729677768722132	0.5036269942893032	0.3840844693025708	0.1231350673200118	0.06495944114441185	0.1731721034559128	-0.05179022602118454	1.128859756281295	0.07371811337978595	0.1481867839038504	0.4924224171570551	0.3842414904999168	0.1574275769546654	1.049809050238008	0.09049146743191812	-0.03218539977756199	1.487493222504186	0.1965004943871746	0.006405664532061507	0.6988350382897204	0.2714260150290475	-0.004297638792329164	0.3132904261171815	0.2540864205312081	0.07399459332909539	0.07028339781376941	0.3128988659941907	-0.1035777068270352	1.340952267846711	0.1424514162513057	0.04784322960420655	1.159682823067391	0.3401042295594316	-0.006636450257851628	1.107482649176531	0.3638664007484115	0.127570461834094	1.271074642188425	0.3392817024514119	0.2108797011657319	1.139396686564061	0.1104525324660527	
84	0.2305555555555556	0.1538014831229725	1.528740907270174	0.1845017263202337	0.1361547077047675	1.449291373443408	0.3242289755700559	0.5988362569504454	0.03480361351195629	0.2604660347978201	0.2834794922413644	1.021761056560561	0.3328090831164079	0.1323240165903622	1.668534769643572	0.1998361270619362	0.4799441930273907	1.155885674276262	0.258122915400753	0.2504742465216149	1.690819203332193	0.2609347961027291	0.2054146761882643	1.148502972152053	0.484360054278888	0.3601500564748651	1.127413882875416	0.3633460823939124	0.5520739754479129	0.05353925147222033	0.1614765951086237	0.4357042956967521	0.533597135524035	0.3465243389107091	0.4805630251020553	0.0396677202067886	0.2613592996977391	0.4202770490768333	1.132047742348372	0.1934059215319406	0.328407583651826	0.4619218830118224	0.320740627577776	0.2680696376839056	1.058815503750306	0.1247008687763494	0.3206818704066481	1.485431684430381	0.2790333721185241	0.4154995450987181	0.7652637016787511	0.3345253947190937	0.5225339606334599	0.3735416404964071	0.2800060294644781	0.512670987514139	0.03709024084826356	0.4246367866082814	0.4080409545680791	1.306939179592878	0.2984138647133592	0.2476321999759253	1.170809723474749	0.3957736789410636	0.2576377198449876	1.092413848461988	0.4000247674302969	0.009652521979894151	0.05608087207422047	0.1448173062119697	0.0295213238267992	1.010780292819915	0.2460258647682018	0.1264501156230953	1.336616633912834	0.08257480200221719	0.05906151737980261	1.677083632046118	0.3189884990152886	-0.1308775887743135	1.152588811188157	0.1113074620028981	0.175721536960843	1.701622801833136	0.3986498889545609	0.01756909342983428	1.165002869993685	0.4053305169909654	-0.05925178551350586	1.141320202221928	0.2693309913996452	0.06899995322839851	0.07093627361150606	0.07528277848163004	0.02674805107731615	0.5035731557659561	0.3841822338065339	0.1231058511084239	0.06497662008822577	0.1732120196628426	-0.05216163738587588	1.128545244087341	0.07320852429023185	0.1476555446545674	0.4923982828140554	0.3845046092889131	0.1574013571309031	1.049387815871795	0.09018523167594789	-0.03279577839996074	1.487224471746072	0.1959490050441696	0.006041077693934136	0.6986664139995069	0.2712218268949988	-0.004584489907002413	0.3132199773291656	0.2541788654220445	0.07390775608028151	0.07012909903337286	0.3129366661318964	-0.1041152401662389	1.340618120745732	0.1418514478269945	0.04704982574502422	1.159397629747048	0.3397573434626675	-0.007367197409125876	1.107066356716299	0.363369439851055	0.1267256487549889	1.270735502041406	0.3387476789456737	0.2107660381813548	1.139076755059227	0.1102357611787048	
